<?xml version="1.0" encoding="UTF-8" standalone="no"?>
<svg
   xmlns:dc="http://purl.org/dc/elements/1.1/"
   xmlns:cc="http://creativecommons.org/ns#"
   xmlns:rdf="http://www.w3.org/1999/02/22-rdf-syntax-ns#"
   xmlns:svg="http://www.w3.org/2000/svg"
   xmlns="http://www.w3.org/2000/svg"
   xmlns:sodipodi="http://sodipodi.sourceforge.net/DTD/sodipodi-0.dtd"
   xmlns:inkscape="http://www.inkscape.org/namespaces/inkscape"
   width="100%"
   height="100%"
   viewBox="0 0 11 11"
   id="jh_logo"
   shape-rendering="crispEdges"
   version="1.1"
   sodipodi:docname="jh_rainbow.svg"
   inkscape:version="0.92.2 5c3e80d, 2017-08-06">
  <metadata
     id="metadata14">
    <rdf:RDF>
      <cc:Work
         rdf:about="">
        <dc:format>image/svg+xml</dc:format>
        <dc:type
           rdf:resource="http://purl.org/dc/dcmitype/StillImage" />
        <dc:title />
      </cc:Work>
    </rdf:RDF>
  </metadata>
  <defs
     id="defs12">
    <clipPath
       clipPathUnits="userSpaceOnUse"
       id="clipPath5172">
      <g
         id="g5188"
         transform="scale(70.636384,43.636357)">
        <g
           id="g5180">
          <rect
             height="1"
             width="1"
             y="6"
             x="2"
             id="rect5174" />
          <rect
             height="1"
             width="1"
             y="6"
             x="8"
             id="rect5176" />
          <polygon
             points="6,7 6,8 5,8 5,7 4,7 4,9 7,9 7,7 "
             id="polygon5178" />
        </g>
        <g
           id="g5186">
          <polygon
             points="11,5 9,5 9,4 2,4 2,5 0,5 0,1 1,1 1,0 3,0 3,1 4,1 4,2 7,2 7,1 8,1 8,0 10,0 10,1 11,1 "
             id="polygon5182" />
          <polygon
             points="10,5 10,8 9,8 9,9 8,9 8,10 3,10 3,9 2,9 2,8 1,8 1,5 0,5 0,9 1,9 1,10 2,10 2,11 9,11 9,10 10,10 10,9 11,9 11,5 "
             id="polygon5184" />
        </g>
      </g>
    </clipPath>
  </defs>
  <sodipodi:namedview
     pagecolor="#ffffff"
     bordercolor="#666666"
     borderopacity="1"
     objecttolerance="10"
     gridtolerance="10"
     guidetolerance="10"
     inkscape:pageopacity="0"
     inkscape:pageshadow="2"
     inkscape:window-width="1916"
     inkscape:window-height="1033"
     id="namedview10"
     showgrid="false"
     inkscape:zoom="90.509668"
     inkscape:cx="5.1558712"
     inkscape:cy="4.0742342"
     inkscape:window-x="0"
     inkscape:window-y="22"
     inkscape:window-maximized="0"
     inkscape:current-layer="jh_logo" />
  <g
     id="g5074"
     transform="scale(0.01415701,0.02291667)"
     clip-path="url(#clipPath5172)">
    <rect
       style="fill:#750787;stroke-width:0.42640141"
       y="392.72729"
       x="0"
       id="rect16"
       height="87.272713"
       width="777" />
    <rect
       style="fill:#004dff;stroke-width:0.46709931"
       y="305.4545"
       x="0"
       id="rect18"
       height="87.272713"
       width="777" />
    <rect
       style="fill:#008026;stroke-width:0.52223289"
       y="218.18179"
       x="0"
       id="rect20"
       height="87.272713"
       width="777" />
    <rect
       style="fill:#ffed00;stroke-width:0.52223295"
       y="152.72725"
       x="0"
       id="rect22"
       height="65.454536"
       width="777" />
    <rect
       style="fill:#ff8c00;stroke-width:0.63960212"
       y="87.272713"
       x="0"
       id="rect24"
       height="65.454536"
       width="777" />
    <rect
       style="fill:#e40303;stroke-width:1.04446578"
       y="6.5515566e-09"
       x="0"
       id="rect26"
       height="87.272713"
       width="777" />
  </g>
</svg>
