<?xml version="1.0" encoding="UTF-8" standalone="no"?>
<!-- Created with Inkscape (http://www.inkscape.org/) -->

<svg
   xmlns:dc="http://purl.org/dc/elements/1.1/"
   xmlns:cc="http://creativecommons.org/ns#"
   xmlns:rdf="http://www.w3.org/1999/02/22-rdf-syntax-ns#"
   xmlns:svg="http://www.w3.org/2000/svg"
   xmlns="http://www.w3.org/2000/svg"
   xmlns:xlink="http://www.w3.org/1999/xlink"
   xmlns:sodipodi="http://sodipodi.sourceforge.net/DTD/sodipodi-0.dtd"
   xmlns:inkscape="http://www.inkscape.org/namespaces/inkscape"
   inkscape:version="0.92.2 2405546, 2018-03-11"
   sodipodi:docname="rainbow_inverted.svg"
   id="svg4196"
   version="1.1"
   viewBox="0 0 150 150.00001"
   height="15cm"
   width="15cm"
   inkscape:export-filename="/home/pajowu/code/jh-logos/pride/pride_collection/rainbow/rainbow_inverted.png"
   inkscape:export-xdpi="300.05865"
   inkscape:export-ydpi="300.05865">
  <defs
     id="defs4190">
    <color-profile
       name="sRGB"
       xlink:href="/usr/share/color/icc/colord/sRGB.icc"
       id="color-profile1983" />
    <clipPath
       clipPathUnits="userSpaceOnUse"
       id="clipPath10180-3">
      <circle
         style="fill:#370000;fill-opacity:1;stroke:none;stroke-width:6.03756857;stroke-linecap:butt;stroke-linejoin:round;stroke-miterlimit:4;stroke-dasharray:none;stroke-dashoffset:0;stroke-opacity:1;paint-order:stroke fill markers"
         id="circle10182-6"
         cx="2.6458333"
         cy="294.35416"
         r="2.6458333" />
    </clipPath>
    <clipPath
       clipPathUnits="userSpaceOnUse"
       id="clipPath11071">
      <g
         id="g11087"
         transform="matrix(0,-95.482805,154.56285,0,-44784.704,309.38153)"
         style="fill:#ffffff">
        <g
           transform="matrix(0.26458333,0,0,0.26458333,-0.72856929,290.8091)"
           id="g11079"
           style="fill:#ffffff">
          <rect
             height="1"
             width="1"
             y="6"
             x="2"
             id="rect11073"
             style="fill:#ffffff" />
          <rect
             height="1"
             width="1"
             y="6"
             x="8"
             id="rect11075"
             style="fill:#ffffff" />
          <polygon
             points="5,7 4,7 4,9 7,9 7,7 6,7 6,8 5,8 "
             id="polygon11077"
             style="fill:#ffffff" />
        </g>
        <g
           transform="matrix(0.26458333,0,0,0.26458333,-0.72856929,290.8091)"
           id="g11085"
           style="fill:#ffffff">
          <polygon
             points="11,1 11,5 9,5 9,4 2,4 2,5 0,5 0,1 1,1 1,0 3,0 3,1 4,1 4,2 7,2 7,1 8,1 8,0 10,0 10,1 "
             id="polygon11081"
             style="fill:#ffffff" />
          <polygon
             points="9,10 10,10 10,9 11,9 11,5 10,5 10,8 9,8 9,9 8,9 8,10 3,10 3,9 2,9 2,8 1,8 1,5 0,5 0,9 1,9 1,10 2,10 2,11 9,11 "
             id="polygon11083"
             style="fill:#ffffff" />
        </g>
      </g>
    </clipPath>
    <clipPath
       clipPathUnits="userSpaceOnUse"
       id="clipPath11442">
      <g
         id="g11458"
         transform="matrix(146.83511,90.708282,-158.74029,98.063342,47072.888,-28863.731)">
        <g
           transform="matrix(0.26458333,0,0,0.26458333,1.8333333e-8,294.08958)"
           id="g11450">
          <rect
             height="1"
             width="1"
             y="6"
             x="2"
             id="rect11444" />
          <rect
             height="1"
             width="1"
             y="6"
             x="8"
             id="rect11446" />
          <polygon
             points="6,7 6,8 5,8 5,7 4,7 4,9 7,9 7,7 "
             id="polygon11448" />
        </g>
        <g
           transform="matrix(0.26458333,0,0,0.26458333,1.8333333e-8,294.08958)"
           id="g11456">
          <polygon
             points="11,5 9,5 9,4 2,4 2,5 0,5 0,1 1,1 1,0 3,0 3,1 4,1 4,2 7,2 7,1 8,1 8,0 10,0 10,1 11,1 "
             id="polygon11452" />
          <polygon
             points="10,5 10,8 9,8 9,9 8,9 8,10 3,10 3,9 2,9 2,8 1,8 1,5 0,5 0,9 1,9 1,10 2,10 2,11 9,11 9,10 10,10 10,9 11,9 11,5 "
             id="polygon11454" />
        </g>
      </g>
    </clipPath>
    <clipPath
       clipPathUnits="userSpaceOnUse"
       id="clipPath11460">
      <g
         id="g11476"
         transform="matrix(0,164.92479,-266.97209,0,79233.095,1.0390262e-4)">
        <g
           transform="matrix(0.26458333,0,0,0.26458333,1.8333333e-8,294.08958)"
           id="g11468">
          <rect
             height="1"
             width="1"
             y="6"
             x="2"
             id="rect11462" />
          <rect
             height="1"
             width="1"
             y="6"
             x="8"
             id="rect11464" />
          <polygon
             points="6,7 6,8 5,8 5,7 4,7 4,9 7,9 7,7 "
             id="polygon11466" />
        </g>
        <g
           transform="matrix(0.26458333,0,0,0.26458333,1.8333333e-8,294.08958)"
           id="g11474">
          <polygon
             points="11,5 9,5 9,4 2,4 2,5 0,5 0,1 1,1 1,0 3,0 3,1 4,1 4,2 7,2 7,1 8,1 8,0 10,0 10,1 11,1 "
             id="polygon11470" />
          <polygon
             points="10,5 10,8 9,8 9,9 8,9 8,10 3,10 3,9 2,9 2,8 1,8 1,5 0,5 0,9 1,9 1,10 2,10 2,11 9,11 9,10 10,10 10,9 11,9 11,5 "
             id="polygon11472" />
        </g>
      </g>
    </clipPath>
    <clipPath
       clipPathUnits="userSpaceOnUse"
       id="clipPath1474">
      <path
         inkscape:connector-curvature="0"
         style="fill:#f10000;fill-opacity:1;stroke:none;stroke-width:2.14824128;stroke-linecap:butt;stroke-linejoin:round;stroke-miterlimit:4;stroke-dasharray:none;stroke-dashoffset:0;stroke-opacity:1;paint-order:stroke fill markers"
         d="m 0.77495756,292.48331 a 2.6458335,2.6458231 0 0 1 3.74177224,-1e-5 2.6458335,2.6458231 0 0 1 -1.2e-6,3.74176 2.6458335,2.6458231 0 0 1 -3.74177228,0 2.6458335,2.6458231 0 0 1 1.24e-6,-3.74175 z m 1.67394874,-0.0985 -0.3938708,0.39387 0.1969404,0.19693 -0.1969355,0.19694 0.196933,0.19693 -0.5908063,0.59081 -0.196933,-0.19694 -0.1969354,0.19694 -0.1969404,-0.19694 -0.39387095,0.39387 0.19694042,0.19694 -0.19693545,0.19693 0.78773928,0.78774 0.7877393,0.78773 0.1969355,-0.19693 0.1969404,0.19694 0.1969354,-0.19694 0.1969331,0.19694 1.3785481,-1.37855 -0.1969331,-0.19693 0.1969355,-0.19693 -0.1969404,-0.19694 0.1969355,-0.19694 -0.7877393,-0.78773 -0.7877393,-0.78774 -0.1969355,0.19694 z m 0.5908114,0.98467 0.196933,0.19694 0.1969354,-0.19694 0.5908064,0.59081 -0.1969354,0.19693 0.1969329,0.19693 -0.1969355,0.19694 0.1969404,0.19694 -0.9846772,0.98467 -0.1969404,-0.19694 -0.1969355,0.19694 -0.1969329,-0.19694 -0.1969354,0.19694 -0.5908064,-0.59081 0.1969354,-0.19693 -0.1969329,-0.19693 z m 0.3938659,0.39387 -0.1969354,0.19693 0.1969404,0.19694 0.1969354,-0.19693 z m -1.1816127,1.18161 -0.1969354,0.19693 0.1969404,0.19694 0.1969354,-0.19693 z m 0.9846822,-0.5908 -0.1969355,0.19693 0.1969331,0.19693 -0.1969354,0.19694 -0.1969331,-0.19693 -0.1969354,0.19693 0.3938659,0.39387 0.5908063,-0.59081 z"
         id="path1476" />
    </clipPath>
  </defs>
  <sodipodi:namedview
     inkscape:window-maximized="0"
     inkscape:window-y="22"
     inkscape:window-x="0"
     inkscape:window-height="1153"
     inkscape:window-width="1916"
     units="cm"
     showgrid="false"
     inkscape:current-layer="layer1"
     inkscape:document-units="mm"
     inkscape:cy="517.81822"
     inkscape:cx="775.73818"
     inkscape:zoom="0.35355339"
     inkscape:pageshadow="2"
     inkscape:pageopacity="0.0"
     borderopacity="1.0"
     bordercolor="#666666"
     pagecolor="#ffffff"
     id="base"
     inkscape:pagecheckerboard="true" />
  <metadata
     id="metadata4193">
    <rdf:RDF>
      <cc:Work
         rdf:about="">
        <dc:format>image/svg+xml</dc:format>
        <dc:type
           rdf:resource="http://purl.org/dc/dcmitype/StillImage" />
        <dc:title></dc:title>
      </cc:Work>
    </rdf:RDF>
  </metadata>
  <g
     inkscape:label="Layer 1"
     inkscape:groupmode="layer"
     id="layer1"
     transform="translate(0,-146.99999)">
    <g
       id="g10156"
       clip-path="url(#clipPath1474)"
       transform="matrix(-20.043968,20.043968,20.044047,20.044047,-5772.0158,-5731.0823)">
      <path
         style="fill:#743082;fill-opacity:1;fill-rule:nonzero;stroke-width:0.00866485"
         d="m 0,291.70834 h 5.2916665 v 5.29167 H 0 Z"
         id="rect3589" />
      <path
         style="fill:#004dff;stroke-width:0.00866485"
         d="m 0,291.70834 h 5.2916665 v 4.40973 H 0 Z"
         id="rect3591" />
      <path
         style="fill:#0a851b;fill-opacity:1;stroke-width:0.00866485"
         d="m 0,291.70834 h 5.2916665 v 3.52778 H 0 Z"
         id="rect3593" />
      <path
         style="fill:#fff00d;fill-opacity:1;stroke-width:0.00866485"
         d="m 0,291.70834 h 5.2916665 v 2.64584 H 0 Z"
         id="rect3595" />
      <path
         style="fill:#ff8c0d;fill-opacity:1;stroke-width:0.00866485"
         d="m 0,291.70834 h 5.2916665 v 1.76389 H 0 Z"
         id="rect3597" />
      <path
         style="fill:#e80523;fill-opacity:1;stroke-width:0.00866485"
         d="m 0,291.70834 h 5.2916665 v 0.88195 H 0 Z"
         id="rect3599" />
    </g>
  </g>
</svg>
