<?xml version="1.0" encoding="UTF-8" standalone="no"?>
<!-- Created with Inkscape (http://www.inkscape.org/) -->

<svg
   xmlns:dc="http://purl.org/dc/elements/1.1/"
   xmlns:cc="http://creativecommons.org/ns#"
   xmlns:rdf="http://www.w3.org/1999/02/22-rdf-syntax-ns#"
   xmlns:svg="http://www.w3.org/2000/svg"
   xmlns="http://www.w3.org/2000/svg"
   xmlns:sodipodi="http://sodipodi.sourceforge.net/DTD/sodipodi-0.dtd"
   xmlns:inkscape="http://www.inkscape.org/namespaces/inkscape"
   width="20"
   height="20"
   viewBox="0 0 5.2916665 5.2916668"
   version="1.1"
   id="svg4196"
   sodipodi:docname="rainbow_circle_60.svg"
   inkscape:version="0.92.2 5c3e80d, 2017-08-06"
   inkscape:export-filename="/home/pajowu/code/jh-logos/pride_collection/bi/rainbow_circle_60.svg.png"
   inkscape:export-xdpi="9000"
   inkscape:export-ydpi="9000">
  <defs
     id="defs4190">
    <clipPath
       clipPathUnits="userSpaceOnUse"
       id="clipPath10180-3">
      <circle
         style="fill:#370000;fill-opacity:1;stroke:none;stroke-width:6.03756857;stroke-linecap:butt;stroke-linejoin:round;stroke-miterlimit:4;stroke-dasharray:none;stroke-dashoffset:0;stroke-opacity:1;paint-order:stroke fill markers"
         id="circle10182-6"
         cx="2.6458333"
         cy="294.35416"
         r="2.6458333" />
    </clipPath>
    <clipPath
       clipPathUnits="userSpaceOnUse"
       id="clipPath11071">
      <g
         id="g11087"
         transform="matrix(0,-95.482805,154.56285,0,-44784.704,309.38153)"
         style="fill:#ffffff">
        <g
           transform="matrix(0.26458333,0,0,0.26458333,-0.72856929,290.8091)"
           id="g11079"
           style="fill:#ffffff">
          <rect
             height="1"
             width="1"
             y="6"
             x="2"
             id="rect11073"
             style="fill:#ffffff" />
          <rect
             height="1"
             width="1"
             y="6"
             x="8"
             id="rect11075"
             style="fill:#ffffff" />
          <polygon
             points="6,7 6,8 5,8 5,7 4,7 4,9 7,9 7,7 "
             id="polygon11077"
             style="fill:#ffffff" />
        </g>
        <g
           transform="matrix(0.26458333,0,0,0.26458333,-0.72856929,290.8091)"
           id="g11085"
           style="fill:#ffffff">
          <polygon
             points="8,0 10,0 10,1 11,1 11,5 9,5 9,4 2,4 2,5 0,5 0,1 1,1 1,0 3,0 3,1 4,1 4,2 7,2 7,1 8,1 "
             id="polygon11081"
             style="fill:#ffffff" />
          <polygon
             points="2,10 2,11 9,11 9,10 10,10 10,9 11,9 11,5 10,5 10,8 9,8 9,9 8,9 8,10 3,10 3,9 2,9 2,8 1,8 1,5 0,5 0,9 1,9 1,10 "
             id="polygon11083"
             style="fill:#ffffff" />
        </g>
      </g>
    </clipPath>
    <clipPath
       clipPathUnits="userSpaceOnUse"
       id="clipPath11442">
      <g
         id="g11458"
         transform="matrix(146.83511,90.708282,-158.74029,98.063342,47072.888,-28863.731)">
        <g
           transform="matrix(0.26458333,0,0,0.26458333,1.8333333e-8,294.08958)"
           id="g11450">
          <rect
             height="1"
             width="1"
             y="6"
             x="2"
             id="rect11444" />
          <rect
             height="1"
             width="1"
             y="6"
             x="8"
             id="rect11446" />
          <polygon
             points="4,9 7,9 7,7 6,7 6,8 5,8 5,7 4,7 "
             id="polygon11448" />
        </g>
        <g
           transform="matrix(0.26458333,0,0,0.26458333,1.8333333e-8,294.08958)"
           id="g11456">
          <polygon
             points="10,0 10,1 11,1 11,5 9,5 9,4 2,4 2,5 0,5 0,1 1,1 1,0 3,0 3,1 4,1 4,2 7,2 7,1 8,1 8,0 "
             id="polygon11452" />
          <polygon
             points="10,9 11,9 11,5 10,5 10,8 9,8 9,9 8,9 8,10 3,10 3,9 2,9 2,8 1,8 1,5 0,5 0,9 1,9 1,10 2,10 2,11 9,11 9,10 10,10 "
             id="polygon11454" />
        </g>
      </g>
    </clipPath>
    <clipPath
       clipPathUnits="userSpaceOnUse"
       id="clipPath11460">
      <g
         id="g11476"
         transform="matrix(0,164.92479,-266.97209,0,79233.095,1.0390262e-4)">
        <g
           transform="matrix(0.26458333,0,0,0.26458333,1.8333333e-8,294.08958)"
           id="g11468">
          <rect
             height="1"
             width="1"
             y="6"
             x="2"
             id="rect11462" />
          <rect
             height="1"
             width="1"
             y="6"
             x="8"
             id="rect11464" />
          <polygon
             points="4,9 7,9 7,7 6,7 6,8 5,8 5,7 4,7 "
             id="polygon11466" />
        </g>
        <g
           transform="matrix(0.26458333,0,0,0.26458333,1.8333333e-8,294.08958)"
           id="g11474">
          <polygon
             points="10,0 10,1 11,1 11,5 9,5 9,4 2,4 2,5 0,5 0,1 1,1 1,0 3,0 3,1 4,1 4,2 7,2 7,1 8,1 8,0 "
             id="polygon11470" />
          <polygon
             points="10,9 11,9 11,5 10,5 10,8 9,8 9,9 8,9 8,10 3,10 3,9 2,9 2,8 1,8 1,5 0,5 0,9 1,9 1,10 2,10 2,11 9,11 9,10 10,10 "
             id="polygon11472" />
        </g>
      </g>
    </clipPath>
    <clipPath
       clipPathUnits="userSpaceOnUse"
       id="clipPath847">
      <path
         id="path849"
         d="m 3.4142869,293.58571 a 2.0001039,2.000104 2.0019696e-6 0 0 -2.8285733,0 2.0001039,2.000104 2.0019696e-6 0 0 9.7e-7,2.82857 2.0001039,2.000104 2.0019696e-6 0 0 2.82857323,0 2.0001039,2.000104 2.0019696e-6 0 0 -9e-7,-2.82857 z m -1.2654127,-0.0744 0.2977443,0.29775 -0.1488761,0.14887 0.1488724,0.14888 -0.1488703,0.14887 0.4466168,0.44661 0.1488704,-0.14887 0.1488725,0.14888 0.1488762,-0.14888 0.2977444,0.29774 L 3.339849,295 l 0.1488723,0.14887 -0.5954877,0.59549 -0.5954874,0.59549 -0.1488723,-0.14888 -0.1488758,0.14888 -0.1488724,-0.14887 -0.1488706,0.14887 -1.04210627,-1.04211 0.14887065,-0.14887 L 0.66014718,295 l 0.1488761,-0.14888 -0.14887235,-0.14887 0.59548737,-0.59549 0.5954873,-0.59548 0.1488724,0.14887 z m -0.446621,0.74437 -0.1488705,0.14887 -0.1488721,-0.14887 -0.44661693,0.44661 0.14887203,0.14888 L 0.95789536,295 l 0.14887234,0.14887 -0.14887613,0.14887 0.74436173,0.74437 0.1488762,-0.14888 0.1488721,0.14887 0.1488703,-0.14887 0.1488724,0.14887 0.4466173,-0.44661 -0.1488724,-0.14887 0.1488705,-0.14888 z m -0.2977407,0.29774 0.1488721,0.14887 -0.1488759,0.14888 -0.1488724,-0.14887 z m 0.8932338,0.89323 0.1488724,0.14888 -0.1488761,0.14887 -0.1488724,-0.14887 z M 1.5533811,295 l 0.1488723,0.14887 -0.1488706,0.14887 0.1488723,0.14888 0.1488704,-0.14888 0.1488723,0.14888 -0.2977407,0.29774 -0.446617,-0.44662 z"
         style="fill:#f10000;fill-opacity:1;stroke:none;stroke-width:1.62395489;stroke-linecap:butt;stroke-linejoin:round;stroke-miterlimit:4;stroke-dasharray:none;stroke-dashoffset:0;stroke-opacity:1;paint-order:stroke fill markers"
         inkscape:connector-curvature="0" />
    </clipPath>
  </defs>
  <sodipodi:namedview
     id="base"
     pagecolor="#cccccc"
     bordercolor="#666666"
     borderopacity="1.0"
     inkscape:pageopacity="1"
     inkscape:pageshadow="2"
     inkscape:zoom="22.627417"
     inkscape:cx="-6.7766328"
     inkscape:cy="14.443352"
     inkscape:document-units="mm"
     inkscape:current-layer="layer1"
     showgrid="false"
     units="px"
     inkscape:window-width="1916"
     inkscape:window-height="1033"
     inkscape:window-x="0"
     inkscape:window-y="22"
     inkscape:window-maximized="0" />
  <metadata
     id="metadata4193">
    <rdf:RDF>
      <cc:Work
         rdf:about="">
        <dc:format>image/svg+xml</dc:format>
        <dc:type
           rdf:resource="http://purl.org/dc/dcmitype/StillImage" />
        <dc:title />
      </cc:Work>
    </rdf:RDF>
  </metadata>
  <g
     inkscape:label="Layer 1"
     inkscape:groupmode="layer"
     id="layer1"
     transform="translate(0,-291.70832)">
    <g
       transform="matrix(0.888625,-0.888625,0.888625,0.888625,-261.27579,33.987028)"
       id="g1489"
       clip-path="url(#clipPath847)">
      <rect
         y="296"
         x="0"
         height="1"
         width="4"
         id="rect1426"
         style="fill:#292929;fill-opacity:1;stroke:none;stroke-width:0.01531908;stroke-linecap:butt;stroke-linejoin:round;stroke-miterlimit:4;stroke-dasharray:none;stroke-dashoffset:0;stroke-opacity:1;paint-order:stroke fill markers" />
      <rect
         y="295"
         x="0"
         height="1"
         width="4"
         id="rect1426-3"
         style="fill:#9c59d1;fill-opacity:1;stroke:none;stroke-width:0.01531908;stroke-linecap:butt;stroke-linejoin:round;stroke-miterlimit:4;stroke-dasharray:none;stroke-dashoffset:0;stroke-opacity:1;paint-order:stroke fill markers" />
      <rect
         y="294"
         x="0"
         height="1"
         width="4"
         id="rect1426-6"
         style="fill:#ffffff;fill-opacity:1;stroke:none;stroke-width:0.01531908;stroke-linecap:butt;stroke-linejoin:round;stroke-miterlimit:4;stroke-dasharray:none;stroke-dashoffset:0;stroke-opacity:1;paint-order:stroke fill markers" />
      <rect
         y="293"
         x="8.8817842e-16"
         height="1"
         width="4"
         id="rect1426-6-7"
         style="fill:#fff430;fill-opacity:1;stroke:none;stroke-width:0.01531908;stroke-linecap:butt;stroke-linejoin:round;stroke-miterlimit:4;stroke-dasharray:none;stroke-dashoffset:0;stroke-opacity:1;paint-order:stroke fill markers" />
    </g>
  </g>
</svg>
