<?xml version="1.0" encoding="UTF-8" standalone="no"?>
<!-- Created with Inkscape (http://www.inkscape.org/) -->

<svg
   xmlns:dc="http://purl.org/dc/elements/1.1/"
   xmlns:cc="http://creativecommons.org/ns#"
   xmlns:rdf="http://www.w3.org/1999/02/22-rdf-syntax-ns#"
   xmlns:svg="http://www.w3.org/2000/svg"
   xmlns="http://www.w3.org/2000/svg"
   xmlns:sodipodi="http://sodipodi.sourceforge.net/DTD/sodipodi-0.dtd"
   xmlns:inkscape="http://www.inkscape.org/namespaces/inkscape"
   width="87"
   height="87"
   viewBox="0 0 23.018749 23.01875"
   version="1.1"
   id="svg851"
   inkscape:version="0.92.2 5c3e80d, 2017-08-06"
   sodipodi:docname="pan_space_alpacas.svg">
  <defs
     id="defs845" />
  <sodipodi:namedview
     id="base"
     pagecolor="#ffffff"
     bordercolor="#666666"
     borderopacity="1.0"
     inkscape:pageopacity="0.0"
     inkscape:pageshadow="2"
     inkscape:zoom="5.6"
     inkscape:cx="88.992338"
     inkscape:cy="25.758909"
     inkscape:document-units="px"
     inkscape:current-layer="layer1"
     showgrid="false"
     units="px"
     inkscape:window-width="1916"
     inkscape:window-height="1033"
     inkscape:window-x="0"
     inkscape:window-y="22"
     inkscape:window-maximized="0" />
  <metadata
     id="metadata848">
    <rdf:RDF>
      <cc:Work
         rdf:about="">
        <dc:format>image/svg+xml</dc:format>
        <dc:type
           rdf:resource="http://purl.org/dc/dcmitype/StillImage" />
        <dc:title></dc:title>
      </cc:Work>
    </rdf:RDF>
  </metadata>
  <g
     inkscape:label="Layer 1"
     inkscape:groupmode="layer"
     id="layer1"
     transform="translate(0,-273.98124)">
    <g
       id="g2699"
       transform="translate(1.9654759,-0.83154238)">
      <g
         style="fill:#21b1ff;fill-opacity:1"
         transform="matrix(0.26458333,0,0,0.26458333,-0.6426291,294.12745)"
         id="face">
        <path
           style="fill:#21b1ff;fill-opacity:1"
           inkscape:connector-curvature="0"
           id="left_eye"
           d="m -0.99973603,-3.43e-4 v 1 H -1.999736 v 4 4 h 0.99999997 v 1 H 2.639748e-4 v 1 H 7.000264 v -1 h 1 v -1 h 1 v -4 -4 h -1 v -1 h -2 v 1 h -1 v 1 h -3 v -1 h -1 v -1 z m 1.0000000048,4 H 7.000264 v 1 h 1 v 3 h -1 v 1 h -1 v 1 h -5 v -1 H 2.639748e-4 v -1 H -0.99973603 v -3 H 2.639748e-4 Z m 0,2 v 1 H 1.000264 v -1 z m 6.0000000252,0 v 1 h 1 v -1 z m -4,1 v 2 h 3 v -2 h -1 v 1 h -1 v -1 z" />
      </g>
      <g
         style="fill:#21b1ff;fill-opacity:1"
         transform="matrix(0.26458333,0,0,0.26458333,-0.6426291,290.42329)"
         id="face-3">
        <path
           style="fill:#21b1ff;fill-opacity:1"
           inkscape:connector-curvature="0"
           id="left_eye-6"
           d="m -0.99973603,-3.43e-4 v 1 H -1.999736 v 4 4 h 0.99999997 v 1 H 2.639748e-4 v 1 H 7.000264 v -1 h 1 v -1 h 1 v -4 -4 h -1 v -1 h -2 v 1 h -1 v 1 h -3 v -1 h -1 v -1 z m 1.0000000048,4 H 7.000264 v 1 h 1 v 3 h -1 v 1 h -1 v 1 h -5 v -1 H 2.639748e-4 v -1 H -0.99973603 v -3 H 2.639748e-4 Z m 0,2 v 1 H 1.000264 v -1 z m 6.0000000252,0 v 1 h 1 v -1 z m -4,1 v 2 h 3 v -2 h -1 v 1 h -1 v -1 z" />
      </g>
      <g
         style="fill:#ffd800;fill-opacity:1"
         transform="matrix(0.26458333,0,0,0.26458333,-0.6426291,286.71912)"
         id="face-3-7">
        <path
           style="fill:#ffd800;fill-opacity:1"
           inkscape:connector-curvature="0"
           id="left_eye-6-5"
           d="m -0.99973603,-3.43e-4 v 1 H -1.999736 v 4 4 h 0.99999997 v 1 H 2.639748e-4 v 1 H 7.000264 v -1 h 1 v -1 h 1 v -4 -4 h -1 v -1 h -2 v 1 h -1 v 1 h -3 v -1 h -1 v -1 z m 1.0000000048,4 H 7.000264 v 1 h 1 v 3 h -1 v 1 h -1 v 1 h -5 v -1 H 2.639748e-4 v -1 H -0.99973603 v -3 H 2.639748e-4 Z m 0,2 v 1 H 1.000264 v -1 z m 6.0000000252,0 v 1 h 1 v -1 z m -4,1 v 2 h 3 v -2 h -1 v 1 h -1 v -1 z" />
      </g>
      <g
         style="fill:#ffd800;fill-opacity:1"
         transform="matrix(0.26458333,0,0,0.26458333,-0.6426291,283.01495)"
         id="face-3-7-3">
        <path
           style="fill:#ffd800;fill-opacity:1"
           inkscape:connector-curvature="0"
           id="left_eye-6-5-5"
           d="m -0.99973603,-3.43e-4 v 1 H -1.999736 v 4 4 h 0.99999997 v 1 H 2.639748e-4 v 1 H 7.000264 v -1 h 1 v -1 h 1 v -4 -4 h -1 v -1 h -2 v 1 h -1 v 1 h -3 v -1 h -1 v -1 z m 1.0000000048,4 H 7.000264 v 1 h 1 v 3 h -1 v 1 h -1 v 1 h -5 v -1 H 2.639748e-4 v -1 H -0.99973603 v -3 H 2.639748e-4 Z m 0,2 v 1 H 1.000264 v -1 z m 6.0000000252,0 v 1 h 1 v -1 z m -4,1 v 2 h 3 v -2 h -1 v 1 h -1 v -1 z" />
      </g>
      <g
         style="fill:#ff218c;fill-opacity:1"
         transform="matrix(0.26458333,0,0,0.26458333,-0.6426291,279.31079)"
         id="face-3-7-3-6">
        <path
           style="fill:#ff218c;fill-opacity:1"
           inkscape:connector-curvature="0"
           id="left_eye-6-5-5-2"
           d="m -0.99973603,-3.43e-4 v 1 H -1.999736 v 4 4 h 0.99999997 v 1 H 2.639748e-4 v 1 H 7.000264 v -1 h 1 v -1 h 1 v -4 -4 h -1 v -1 h -2 v 1 h -1 v 1 h -3 v -1 h -1 v -1 z m 1.0000000048,4 H 7.000264 v 1 h 1 v 3 h -1 v 1 h -1 v 1 h -5 v -1 H 2.639748e-4 v -1 H -0.99973603 v -3 H 2.639748e-4 Z m 0,2 v 1 H 1.000264 v -1 z m 6.0000000252,0 v 1 h 1 v -1 z m -4,1 v 2 h 3 v -2 h -1 v 1 h -1 v -1 z" />
      </g>
      <g
         style="fill:#ff218c;fill-opacity:1"
         transform="matrix(0.26458333,0,0,0.26458333,-0.6426291,275.60662)"
         id="face-3-7-3-9">
        <path
           style="fill:#ff218c;fill-opacity:1"
           inkscape:connector-curvature="0"
           id="left_eye-6-5-5-1"
           d="m -0.99973603,-3.43e-4 v 1 H -1.999736 v 4 4 h 0.99999997 v 1 H 2.639748e-4 v 1 H 7.000264 v -1 h 1 v -1 h 1 v -4 -4 h -1 v -1 h -2 v 1 h -1 v 1 h -3 v -1 h -1 v -1 z m 1.0000000048,4 H 7.000264 v 1 h 1 v 3 h -1 v 1 h -1 v 1 h -5 v -1 H 2.639748e-4 v -1 H -0.99973603 v -3 H 2.639748e-4 Z m 0,2 v 1 H 1.000264 v -1 z m 6.0000000252,0 v 1 h 1 v -1 z m -4,1 v 2 h 3 v -2 h -1 v 1 h -1 v -1 z" />
      </g>
      <g
         style="fill:#21b1ff;fill-opacity:1"
         transform="matrix(0.26458333,0,0,0.26458333,3.0615376,294.12745)"
         id="face-7">
        <path
           style="fill:#21b1ff;fill-opacity:1"
           inkscape:connector-curvature="0"
           id="left_eye-0"
           d="m -0.99973603,-3.43e-4 v 1 H -1.999736 v 4 4 h 0.99999997 v 1 H 2.639748e-4 v 1 H 7.000264 v -1 h 1 v -1 h 1 v -4 -4 h -1 v -1 h -2 v 1 h -1 v 1 h -3 v -1 h -1 v -1 z m 1.0000000048,4 H 7.000264 v 1 h 1 v 3 h -1 v 1 h -1 v 1 h -5 v -1 H 2.639748e-4 v -1 H -0.99973603 v -3 H 2.639748e-4 Z m 0,2 v 1 H 1.000264 v -1 z m 6.0000000252,0 v 1 h 1 v -1 z m -4,1 v 2 h 3 v -2 h -1 v 1 h -1 v -1 z" />
      </g>
      <g
         style="fill:#21b1ff;fill-opacity:1"
         transform="matrix(0.26458333,0,0,0.26458333,3.0615376,290.42329)"
         id="face-3-9">
        <path
           style="fill:#21b1ff;fill-opacity:1"
           inkscape:connector-curvature="0"
           id="left_eye-6-3"
           d="m -0.99973603,-3.43e-4 v 1 H -1.999736 v 4 4 h 0.99999997 v 1 H 2.639748e-4 v 1 H 7.000264 v -1 h 1 v -1 h 1 v -4 -4 h -1 v -1 h -2 v 1 h -1 v 1 h -3 v -1 h -1 v -1 z m 1.0000000048,4 H 7.000264 v 1 h 1 v 3 h -1 v 1 h -1 v 1 h -5 v -1 H 2.639748e-4 v -1 H -0.99973603 v -3 H 2.639748e-4 Z m 0,2 v 1 H 1.000264 v -1 z m 6.0000000252,0 v 1 h 1 v -1 z m -4,1 v 2 h 3 v -2 h -1 v 1 h -1 v -1 z" />
      </g>
      <g
         style="fill:#ffd800;fill-opacity:1"
         transform="matrix(0.26458333,0,0,0.26458333,3.0615376,286.71912)"
         id="face-3-7-6">
        <path
           style="fill:#ffd800;fill-opacity:1"
           inkscape:connector-curvature="0"
           id="left_eye-6-5-0"
           d="m -0.99973603,-3.43e-4 v 1 H -1.999736 v 4 4 h 0.99999997 v 1 H 2.639748e-4 v 1 H 7.000264 v -1 h 1 v -1 h 1 v -4 -4 h -1 v -1 h -2 v 1 h -1 v 1 h -3 v -1 h -1 v -1 z m 1.0000000048,4 H 7.000264 v 1 h 1 v 3 h -1 v 1 h -1 v 1 h -5 v -1 H 2.639748e-4 v -1 H -0.99973603 v -3 H 2.639748e-4 Z m 0,2 v 1 H 1.000264 v -1 z m 6.0000000252,0 v 1 h 1 v -1 z m -4,1 v 2 h 3 v -2 h -1 v 1 h -1 v -1 z" />
      </g>
      <g
         style="fill:#ffd800;fill-opacity:1"
         transform="matrix(0.26458333,0,0,0.26458333,3.0615376,283.01495)"
         id="face-3-7-3-62">
        <path
           style="fill:#ffd800;fill-opacity:1"
           inkscape:connector-curvature="0"
           id="left_eye-6-5-5-6"
           d="m -0.99973603,-3.43e-4 v 1 H -1.999736 v 4 4 h 0.99999997 v 1 H 2.639748e-4 v 1 H 7.000264 v -1 h 1 v -1 h 1 v -4 -4 h -1 v -1 h -2 v 1 h -1 v 1 h -3 v -1 h -1 v -1 z m 1.0000000048,4 H 7.000264 v 1 h 1 v 3 h -1 v 1 h -1 v 1 h -5 v -1 H 2.639748e-4 v -1 H -0.99973603 v -3 H 2.639748e-4 Z m 0,2 v 1 H 1.000264 v -1 z m 6.0000000252,0 v 1 h 1 v -1 z m -4,1 v 2 h 3 v -2 h -1 v 1 h -1 v -1 z" />
      </g>
      <g
         style="fill:#ff218c;fill-opacity:1"
         transform="matrix(0.26458333,0,0,0.26458333,3.0615376,279.31079)"
         id="face-3-7-3-6-1">
        <path
           style="fill:#ff218c;fill-opacity:1"
           inkscape:connector-curvature="0"
           id="left_eye-6-5-5-2-8"
           d="m -0.99973603,-3.43e-4 v 1 H -1.999736 v 4 4 h 0.99999997 v 1 H 2.639748e-4 v 1 H 7.000264 v -1 h 1 v -1 h 1 v -4 -4 h -1 v -1 h -2 v 1 h -1 v 1 h -3 v -1 h -1 v -1 z m 1.0000000048,4 H 7.000264 v 1 h 1 v 3 h -1 v 1 h -1 v 1 h -5 v -1 H 2.639748e-4 v -1 H -0.99973603 v -3 H 2.639748e-4 Z m 0,2 v 1 H 1.000264 v -1 z m 6.0000000252,0 v 1 h 1 v -1 z m -4,1 v 2 h 3 v -2 h -1 v 1 h -1 v -1 z" />
      </g>
      <g
         style="fill:#ff218c;fill-opacity:1"
         transform="matrix(0.26458333,0,0,0.26458333,3.0615376,275.60662)"
         id="face-3-7-3-9-7">
        <path
           style="fill:#ff218c;fill-opacity:1"
           inkscape:connector-curvature="0"
           id="left_eye-6-5-5-1-9"
           d="m -0.99973603,-3.43e-4 v 1 H -1.999736 v 4 4 h 0.99999997 v 1 H 2.639748e-4 v 1 H 7.000264 v -1 h 1 v -1 h 1 v -4 -4 h -1 v -1 h -2 v 1 h -1 v 1 h -3 v -1 h -1 v -1 z m 1.0000000048,4 H 7.000264 v 1 h 1 v 3 h -1 v 1 h -1 v 1 h -5 v -1 H 2.639748e-4 v -1 H -0.99973603 v -3 H 2.639748e-4 Z m 0,2 v 1 H 1.000264 v -1 z m 6.0000000252,0 v 1 h 1 v -1 z m -4,1 v 2 h 3 v -2 h -1 v 1 h -1 v -1 z" />
      </g>
      <g
         style="fill:#21b1ff;fill-opacity:1"
         transform="matrix(0.26458333,0,0,0.26458333,6.7657043,294.12745)"
         id="face-2">
        <path
           style="fill:#21b1ff;fill-opacity:1"
           inkscape:connector-curvature="0"
           id="left_eye-3"
           d="m -0.99973603,-3.43e-4 v 1 H -1.999736 v 4 4 h 0.99999997 v 1 H 2.639748e-4 v 1 H 7.000264 v -1 h 1 v -1 h 1 v -4 -4 h -1 v -1 h -2 v 1 h -1 v 1 h -3 v -1 h -1 v -1 z m 1.0000000048,4 H 7.000264 v 1 h 1 v 3 h -1 v 1 h -1 v 1 h -5 v -1 H 2.639748e-4 v -1 H -0.99973603 v -3 H 2.639748e-4 Z m 0,2 v 1 H 1.000264 v -1 z m 6.0000000252,0 v 1 h 1 v -1 z m -4,1 v 2 h 3 v -2 h -1 v 1 h -1 v -1 z" />
      </g>
      <g
         style="fill:#21b1ff;fill-opacity:1"
         transform="matrix(0.26458333,0,0,0.26458333,6.7657043,290.42329)"
         id="face-3-75">
        <path
           style="fill:#21b1ff;fill-opacity:1"
           inkscape:connector-curvature="0"
           id="left_eye-6-9"
           d="m -0.99973603,-3.43e-4 v 1 H -1.999736 v 4 4 h 0.99999997 v 1 H 2.639748e-4 v 1 H 7.000264 v -1 h 1 v -1 h 1 v -4 -4 h -1 v -1 h -2 v 1 h -1 v 1 h -3 v -1 h -1 v -1 z m 1.0000000048,4 H 7.000264 v 1 h 1 v 3 h -1 v 1 h -1 v 1 h -5 v -1 H 2.639748e-4 v -1 H -0.99973603 v -3 H 2.639748e-4 Z m 0,2 v 1 H 1.000264 v -1 z m 6.0000000252,0 v 1 h 1 v -1 z m -4,1 v 2 h 3 v -2 h -1 v 1 h -1 v -1 z" />
      </g>
      <g
         style="fill:#ffd800;fill-opacity:1"
         transform="matrix(0.26458333,0,0,0.26458333,6.7657043,286.71912)"
         id="face-3-7-2">
        <path
           style="fill:#ffd800;fill-opacity:1"
           inkscape:connector-curvature="0"
           id="left_eye-6-5-2"
           d="m -0.99973603,-3.43e-4 v 1 H -1.999736 v 4 4 h 0.99999997 v 1 H 2.639748e-4 v 1 H 7.000264 v -1 h 1 v -1 h 1 v -4 -4 h -1 v -1 h -2 v 1 h -1 v 1 h -3 v -1 h -1 v -1 z m 1.0000000048,4 H 7.000264 v 1 h 1 v 3 h -1 v 1 h -1 v 1 h -5 v -1 H 2.639748e-4 v -1 H -0.99973603 v -3 H 2.639748e-4 Z m 0,2 v 1 H 1.000264 v -1 z m 6.0000000252,0 v 1 h 1 v -1 z m -4,1 v 2 h 3 v -2 h -1 v 1 h -1 v -1 z" />
      </g>
      <g
         style="fill:#ffd800;fill-opacity:1"
         transform="matrix(0.26458333,0,0,0.26458333,6.7657043,283.01495)"
         id="face-3-7-3-8">
        <path
           style="fill:#ffd800;fill-opacity:1"
           inkscape:connector-curvature="0"
           id="left_eye-6-5-5-9"
           d="m -0.99973603,-3.43e-4 v 1 H -1.999736 v 4 4 h 0.99999997 v 1 H 2.639748e-4 v 1 H 7.000264 v -1 h 1 v -1 h 1 v -4 -4 h -1 v -1 h -2 v 1 h -1 v 1 h -3 v -1 h -1 v -1 z m 1.0000000048,4 H 7.000264 v 1 h 1 v 3 h -1 v 1 h -1 v 1 h -5 v -1 H 2.639748e-4 v -1 H -0.99973603 v -3 H 2.639748e-4 Z m 0,2 v 1 H 1.000264 v -1 z m 6.0000000252,0 v 1 h 1 v -1 z m -4,1 v 2 h 3 v -2 h -1 v 1 h -1 v -1 z" />
      </g>
      <g
         style="fill:#ff218c;fill-opacity:1"
         transform="matrix(0.26458333,0,0,0.26458333,6.7657043,279.31079)"
         id="face-3-7-3-6-7">
        <path
           style="fill:#ff218c;fill-opacity:1"
           inkscape:connector-curvature="0"
           id="left_eye-6-5-5-2-3"
           d="m -0.99973603,-3.43e-4 v 1 H -1.999736 v 4 4 h 0.99999997 v 1 H 2.639748e-4 v 1 H 7.000264 v -1 h 1 v -1 h 1 v -4 -4 h -1 v -1 h -2 v 1 h -1 v 1 h -3 v -1 h -1 v -1 z m 1.0000000048,4 H 7.000264 v 1 h 1 v 3 h -1 v 1 h -1 v 1 h -5 v -1 H 2.639748e-4 v -1 H -0.99973603 v -3 H 2.639748e-4 Z m 0,2 v 1 H 1.000264 v -1 z m 6.0000000252,0 v 1 h 1 v -1 z m -4,1 v 2 h 3 v -2 h -1 v 1 h -1 v -1 z" />
      </g>
      <g
         style="fill:#ff218c;fill-opacity:1"
         transform="matrix(0.26458333,0,0,0.26458333,6.7657043,275.60662)"
         id="face-3-7-3-9-6">
        <path
           style="fill:#ff218c;fill-opacity:1"
           inkscape:connector-curvature="0"
           id="left_eye-6-5-5-1-1"
           d="m -0.99973603,-3.43e-4 v 1 H -1.999736 v 4 4 h 0.99999997 v 1 H 2.639748e-4 v 1 H 7.000264 v -1 h 1 v -1 h 1 v -4 -4 h -1 v -1 h -2 v 1 h -1 v 1 h -3 v -1 h -1 v -1 z m 1.0000000048,4 H 7.000264 v 1 h 1 v 3 h -1 v 1 h -1 v 1 h -5 v -1 H 2.639748e-4 v -1 H -0.99973603 v -3 H 2.639748e-4 Z m 0,2 v 1 H 1.000264 v -1 z m 6.0000000252,0 v 1 h 1 v -1 z m -4,1 v 2 h 3 v -2 h -1 v 1 h -1 v -1 z" />
      </g>
      <g
         style="fill:#21b1ff;fill-opacity:1"
         transform="matrix(0.26458333,0,0,0.26458333,10.469871,294.12745)"
         id="face-31">
        <path
           style="fill:#21b1ff;fill-opacity:1"
           inkscape:connector-curvature="0"
           id="left_eye-9"
           d="m -0.99973603,-3.43e-4 v 1 H -1.999736 v 4 4 h 0.99999997 v 1 H 2.639748e-4 v 1 H 7.000264 v -1 h 1 v -1 h 1 v -4 -4 h -1 v -1 h -2 v 1 h -1 v 1 h -3 v -1 h -1 v -1 z m 1.0000000048,4 H 7.000264 v 1 h 1 v 3 h -1 v 1 h -1 v 1 h -5 v -1 H 2.639748e-4 v -1 H -0.99973603 v -3 H 2.639748e-4 Z m 0,2 v 1 H 1.000264 v -1 z m 6.0000000252,0 v 1 h 1 v -1 z m -4,1 v 2 h 3 v -2 h -1 v 1 h -1 v -1 z" />
      </g>
      <g
         style="fill:#21b1ff;fill-opacity:1"
         transform="matrix(0.26458333,0,0,0.26458333,10.469871,290.42329)"
         id="face-3-4">
        <path
           style="fill:#21b1ff;fill-opacity:1"
           inkscape:connector-curvature="0"
           id="left_eye-6-7"
           d="m -0.99973603,-3.43e-4 v 1 H -1.999736 v 4 4 h 0.99999997 v 1 H 2.639748e-4 v 1 H 7.000264 v -1 h 1 v -1 h 1 v -4 -4 h -1 v -1 h -2 v 1 h -1 v 1 h -3 v -1 h -1 v -1 z m 1.0000000048,4 H 7.000264 v 1 h 1 v 3 h -1 v 1 h -1 v 1 h -5 v -1 H 2.639748e-4 v -1 H -0.99973603 v -3 H 2.639748e-4 Z m 0,2 v 1 H 1.000264 v -1 z m 6.0000000252,0 v 1 h 1 v -1 z m -4,1 v 2 h 3 v -2 h -1 v 1 h -1 v -1 z" />
      </g>
      <g
         style="fill:#ffd800;fill-opacity:1"
         transform="matrix(0.26458333,0,0,0.26458333,10.469871,286.71912)"
         id="face-3-7-8">
        <path
           style="fill:#ffd800;fill-opacity:1"
           inkscape:connector-curvature="0"
           id="left_eye-6-5-4"
           d="m -0.99973603,-3.43e-4 v 1 H -1.999736 v 4 4 h 0.99999997 v 1 H 2.639748e-4 v 1 H 7.000264 v -1 h 1 v -1 h 1 v -4 -4 h -1 v -1 h -2 v 1 h -1 v 1 h -3 v -1 h -1 v -1 z m 1.0000000048,4 H 7.000264 v 1 h 1 v 3 h -1 v 1 h -1 v 1 h -5 v -1 H 2.639748e-4 v -1 H -0.99973603 v -3 H 2.639748e-4 Z m 0,2 v 1 H 1.000264 v -1 z m 6.0000000252,0 v 1 h 1 v -1 z m -4,1 v 2 h 3 v -2 h -1 v 1 h -1 v -1 z" />
      </g>
      <g
         style="fill:#ffd800;fill-opacity:1"
         transform="matrix(0.26458333,0,0,0.26458333,10.469871,283.01495)"
         id="face-3-7-3-5">
        <path
           style="fill:#ffd800;fill-opacity:1"
           inkscape:connector-curvature="0"
           id="left_eye-6-5-5-0"
           d="m -0.99973603,-3.43e-4 v 1 H -1.999736 v 4 4 h 0.99999997 v 1 H 2.639748e-4 v 1 H 7.000264 v -1 h 1 v -1 h 1 v -4 -4 h -1 v -1 h -2 v 1 h -1 v 1 h -3 v -1 h -1 v -1 z m 1.0000000048,4 H 7.000264 v 1 h 1 v 3 h -1 v 1 h -1 v 1 h -5 v -1 H 2.639748e-4 v -1 H -0.99973603 v -3 H 2.639748e-4 Z m 0,2 v 1 H 1.000264 v -1 z m 6.0000000252,0 v 1 h 1 v -1 z m -4,1 v 2 h 3 v -2 h -1 v 1 h -1 v -1 z" />
      </g>
      <g
         style="fill:#ff218c;fill-opacity:1"
         transform="matrix(0.26458333,0,0,0.26458333,10.469871,279.31079)"
         id="face-3-7-3-6-3">
        <path
           style="fill:#ff218c;fill-opacity:1"
           inkscape:connector-curvature="0"
           id="left_eye-6-5-5-2-6"
           d="m -0.99973603,-3.43e-4 v 1 H -1.999736 v 4 4 h 0.99999997 v 1 H 2.639748e-4 v 1 H 7.000264 v -1 h 1 v -1 h 1 v -4 -4 h -1 v -1 h -2 v 1 h -1 v 1 h -3 v -1 h -1 v -1 z m 1.0000000048,4 H 7.000264 v 1 h 1 v 3 h -1 v 1 h -1 v 1 h -5 v -1 H 2.639748e-4 v -1 H -0.99973603 v -3 H 2.639748e-4 Z m 0,2 v 1 H 1.000264 v -1 z m 6.0000000252,0 v 1 h 1 v -1 z m -4,1 v 2 h 3 v -2 h -1 v 1 h -1 v -1 z" />
      </g>
      <g
         style="fill:#ff218c;fill-opacity:1"
         transform="matrix(0.26458333,0,0,0.26458333,10.469871,275.60662)"
         id="face-3-7-3-9-1">
        <path
           style="fill:#ff218c;fill-opacity:1"
           inkscape:connector-curvature="0"
           id="left_eye-6-5-5-1-0"
           d="m -0.99973603,-3.43e-4 v 1 H -1.999736 v 4 4 h 0.99999997 v 1 H 2.639748e-4 v 1 H 7.000264 v -1 h 1 v -1 h 1 v -4 -4 h -1 v -1 h -2 v 1 h -1 v 1 h -3 v -1 h -1 v -1 z m 1.0000000048,4 H 7.000264 v 1 h 1 v 3 h -1 v 1 h -1 v 1 h -5 v -1 H 2.639748e-4 v -1 H -0.99973603 v -3 H 2.639748e-4 Z m 0,2 v 1 H 1.000264 v -1 z m 6.0000000252,0 v 1 h 1 v -1 z m -4,1 v 2 h 3 v -2 h -1 v 1 h -1 v -1 z" />
      </g>
      <g
         style="fill:#21b1ff;fill-opacity:1"
         transform="matrix(0.26458333,0,0,0.26458333,14.174038,294.12745)"
         id="face-32">
        <path
           style="fill:#21b1ff;fill-opacity:1"
           inkscape:connector-curvature="0"
           id="left_eye-06"
           d="m -0.99973603,-3.43e-4 v 1 H -1.999736 v 4 4 h 0.99999997 v 1 H 2.639748e-4 v 1 H 7.000264 v -1 h 1 v -1 h 1 v -4 -4 h -1 v -1 h -2 v 1 h -1 v 1 h -3 v -1 h -1 v -1 z m 1.0000000048,4 H 7.000264 v 1 h 1 v 3 h -1 v 1 h -1 v 1 h -5 v -1 H 2.639748e-4 v -1 H -0.99973603 v -3 H 2.639748e-4 Z m 0,2 v 1 H 1.000264 v -1 z m 6.0000000252,0 v 1 h 1 v -1 z m -4,1 v 2 h 3 v -2 h -1 v 1 h -1 v -1 z" />
      </g>
      <g
         style="fill:#21b1ff;fill-opacity:1"
         transform="matrix(0.26458333,0,0,0.26458333,14.174038,290.42329)"
         id="face-3-1">
        <path
           style="fill:#21b1ff;fill-opacity:1"
           inkscape:connector-curvature="0"
           id="left_eye-6-55"
           d="m -0.99973603,-3.43e-4 v 1 H -1.999736 v 4 4 h 0.99999997 v 1 H 2.639748e-4 v 1 H 7.000264 v -1 h 1 v -1 h 1 v -4 -4 h -1 v -1 h -2 v 1 h -1 v 1 h -3 v -1 h -1 v -1 z m 1.0000000048,4 H 7.000264 v 1 h 1 v 3 h -1 v 1 h -1 v 1 h -5 v -1 H 2.639748e-4 v -1 H -0.99973603 v -3 H 2.639748e-4 Z m 0,2 v 1 H 1.000264 v -1 z m 6.0000000252,0 v 1 h 1 v -1 z m -4,1 v 2 h 3 v -2 h -1 v 1 h -1 v -1 z" />
      </g>
      <g
         style="fill:#ffd800;fill-opacity:1"
         transform="matrix(0.26458333,0,0,0.26458333,14.174038,286.71912)"
         id="face-3-7-4">
        <path
           style="fill:#ffd800;fill-opacity:1"
           inkscape:connector-curvature="0"
           id="left_eye-6-5-7"
           d="m -0.99973603,-3.43e-4 v 1 H -1.999736 v 4 4 h 0.99999997 v 1 H 2.639748e-4 v 1 H 7.000264 v -1 h 1 v -1 h 1 v -4 -4 h -1 v -1 h -2 v 1 h -1 v 1 h -3 v -1 h -1 v -1 z m 1.0000000048,4 H 7.000264 v 1 h 1 v 3 h -1 v 1 h -1 v 1 h -5 v -1 H 2.639748e-4 v -1 H -0.99973603 v -3 H 2.639748e-4 Z m 0,2 v 1 H 1.000264 v -1 z m 6.0000000252,0 v 1 h 1 v -1 z m -4,1 v 2 h 3 v -2 h -1 v 1 h -1 v -1 z" />
      </g>
      <g
         style="fill:#ffd800;fill-opacity:1"
         transform="matrix(0.26458333,0,0,0.26458333,14.174038,283.01495)"
         id="face-3-7-3-65">
        <path
           style="fill:#ffd800;fill-opacity:1"
           inkscape:connector-curvature="0"
           id="left_eye-6-5-5-69"
           d="m -0.99973603,-3.43e-4 v 1 H -1.999736 v 4 4 h 0.99999997 v 1 H 2.639748e-4 v 1 H 7.000264 v -1 h 1 v -1 h 1 v -4 -4 h -1 v -1 h -2 v 1 h -1 v 1 h -3 v -1 h -1 v -1 z m 1.0000000048,4 H 7.000264 v 1 h 1 v 3 h -1 v 1 h -1 v 1 h -5 v -1 H 2.639748e-4 v -1 H -0.99973603 v -3 H 2.639748e-4 Z m 0,2 v 1 H 1.000264 v -1 z m 6.0000000252,0 v 1 h 1 v -1 z m -4,1 v 2 h 3 v -2 h -1 v 1 h -1 v -1 z" />
      </g>
      <g
         style="fill:#ff218c;fill-opacity:1"
         transform="matrix(0.26458333,0,0,0.26458333,14.174038,279.31079)"
         id="face-3-7-3-6-37">
        <path
           style="fill:#ff218c;fill-opacity:1"
           inkscape:connector-curvature="0"
           id="left_eye-6-5-5-2-4"
           d="m -0.99973603,-3.43e-4 v 1 H -1.999736 v 4 4 h 0.99999997 v 1 H 2.639748e-4 v 1 H 7.000264 v -1 h 1 v -1 h 1 v -4 -4 h -1 v -1 h -2 v 1 h -1 v 1 h -3 v -1 h -1 v -1 z m 1.0000000048,4 H 7.000264 v 1 h 1 v 3 h -1 v 1 h -1 v 1 h -5 v -1 H 2.639748e-4 v -1 H -0.99973603 v -3 H 2.639748e-4 Z m 0,2 v 1 H 1.000264 v -1 z m 6.0000000252,0 v 1 h 1 v -1 z m -4,1 v 2 h 3 v -2 h -1 v 1 h -1 v -1 z" />
      </g>
      <g
         style="fill:#ff218c;fill-opacity:1"
         transform="matrix(0.26458333,0,0,0.26458333,14.174038,275.60662)"
         id="face-3-7-3-9-5">
        <path
           style="fill:#ff218c;fill-opacity:1"
           inkscape:connector-curvature="0"
           id="left_eye-6-5-5-1-2"
           d="m -0.99973603,-3.43e-4 v 1 H -1.999736 v 4 4 h 0.99999997 v 1 H 2.639748e-4 v 1 H 7.000264 v -1 h 1 v -1 h 1 v -4 -4 h -1 v -1 h -2 v 1 h -1 v 1 h -3 v -1 h -1 v -1 z m 1.0000000048,4 H 7.000264 v 1 h 1 v 3 h -1 v 1 h -1 v 1 h -5 v -1 H 2.639748e-4 v -1 H -0.99973603 v -3 H 2.639748e-4 Z m 0,2 v 1 H 1.000264 v -1 z m 6.0000000252,0 v 1 h 1 v -1 z m -4,1 v 2 h 3 v -2 h -1 v 1 h -1 v -1 z" />
      </g>
      <g
         style="fill:#21b1ff;fill-opacity:1"
         transform="matrix(0.26458333,0,0,0.26458333,17.878204,294.12745)"
         id="face-4">
        <path
           style="fill:#21b1ff;fill-opacity:1"
           inkscape:connector-curvature="0"
           id="left_eye-7"
           d="m -0.99973603,-3.43e-4 v 1 H -1.999736 v 4 4 h 0.99999997 v 1 H 2.639748e-4 v 1 H 7.000264 v -1 h 1 v -1 h 1 v -4 -4 h -1 v -1 h -2 v 1 h -1 v 1 h -3 v -1 h -1 v -1 z m 1.0000000048,4 H 7.000264 v 1 h 1 v 3 h -1 v 1 h -1 v 1 h -5 v -1 H 2.639748e-4 v -1 H -0.99973603 v -3 H 2.639748e-4 Z m 0,2 v 1 H 1.000264 v -1 z m 6.0000000252,0 v 1 h 1 v -1 z m -4,1 v 2 h 3 v -2 h -1 v 1 h -1 v -1 z" />
      </g>
      <g
         style="fill:#21b1ff;fill-opacity:1"
         transform="matrix(0.26458333,0,0,0.26458333,17.878204,290.42329)"
         id="face-3-44">
        <path
           style="fill:#21b1ff;fill-opacity:1"
           inkscape:connector-curvature="0"
           id="left_eye-6-30"
           d="m -0.99973603,-3.43e-4 v 1 H -1.999736 v 4 4 h 0.99999997 v 1 H 2.639748e-4 v 1 H 7.000264 v -1 h 1 v -1 h 1 v -4 -4 h -1 v -1 h -2 v 1 h -1 v 1 h -3 v -1 h -1 v -1 z m 1.0000000048,4 H 7.000264 v 1 h 1 v 3 h -1 v 1 h -1 v 1 h -5 v -1 H 2.639748e-4 v -1 H -0.99973603 v -3 H 2.639748e-4 Z m 0,2 v 1 H 1.000264 v -1 z m 6.0000000252,0 v 1 h 1 v -1 z m -4,1 v 2 h 3 v -2 h -1 v 1 h -1 v -1 z" />
      </g>
      <g
         style="fill:#ffd800;fill-opacity:1"
         transform="matrix(0.26458333,0,0,0.26458333,17.878204,286.71912)"
         id="face-3-7-7">
        <path
           style="fill:#ffd800;fill-opacity:1"
           inkscape:connector-curvature="0"
           id="left_eye-6-5-8"
           d="m -0.99973603,-3.43e-4 v 1 H -1.999736 v 4 4 h 0.99999997 v 1 H 2.639748e-4 v 1 H 7.000264 v -1 h 1 v -1 h 1 v -4 -4 h -1 v -1 h -2 v 1 h -1 v 1 h -3 v -1 h -1 v -1 z m 1.0000000048,4 H 7.000264 v 1 h 1 v 3 h -1 v 1 h -1 v 1 h -5 v -1 H 2.639748e-4 v -1 H -0.99973603 v -3 H 2.639748e-4 Z m 0,2 v 1 H 1.000264 v -1 z m 6.0000000252,0 v 1 h 1 v -1 z m -4,1 v 2 h 3 v -2 h -1 v 1 h -1 v -1 z" />
      </g>
      <g
         style="fill:#ffd800;fill-opacity:1"
         transform="matrix(0.26458333,0,0,0.26458333,17.878204,283.01495)"
         id="face-3-7-3-68">
        <path
           style="fill:#ffd800;fill-opacity:1"
           inkscape:connector-curvature="0"
           id="left_eye-6-5-5-8"
           d="m -0.99973603,-3.43e-4 v 1 H -1.999736 v 4 4 h 0.99999997 v 1 H 2.639748e-4 v 1 H 7.000264 v -1 h 1 v -1 h 1 v -4 -4 h -1 v -1 h -2 v 1 h -1 v 1 h -3 v -1 h -1 v -1 z m 1.0000000048,4 H 7.000264 v 1 h 1 v 3 h -1 v 1 h -1 v 1 h -5 v -1 H 2.639748e-4 v -1 H -0.99973603 v -3 H 2.639748e-4 Z m 0,2 v 1 H 1.000264 v -1 z m 6.0000000252,0 v 1 h 1 v -1 z m -4,1 v 2 h 3 v -2 h -1 v 1 h -1 v -1 z" />
      </g>
      <g
         style="fill:#ff218c;fill-opacity:1"
         transform="matrix(0.26458333,0,0,0.26458333,17.878204,279.31079)"
         id="face-3-7-3-6-4">
        <path
           style="fill:#ff218c;fill-opacity:1"
           inkscape:connector-curvature="0"
           id="left_eye-6-5-5-2-31"
           d="m -0.99973603,-3.43e-4 v 1 H -1.999736 v 4 4 h 0.99999997 v 1 H 2.639748e-4 v 1 H 7.000264 v -1 h 1 v -1 h 1 v -4 -4 h -1 v -1 h -2 v 1 h -1 v 1 h -3 v -1 h -1 v -1 z m 1.0000000048,4 H 7.000264 v 1 h 1 v 3 h -1 v 1 h -1 v 1 h -5 v -1 H 2.639748e-4 v -1 H -0.99973603 v -3 H 2.639748e-4 Z m 0,2 v 1 H 1.000264 v -1 z m 6.0000000252,0 v 1 h 1 v -1 z m -4,1 v 2 h 3 v -2 h -1 v 1 h -1 v -1 z" />
      </g>
      <g
         style="fill:#ff218c;fill-opacity:1"
         transform="matrix(0.26458333,0,0,0.26458333,17.878204,275.60662)"
         id="face-3-7-3-9-4">
        <path
           style="fill:#ff218c;fill-opacity:1"
           inkscape:connector-curvature="0"
           id="left_eye-6-5-5-1-92"
           d="m -0.99973603,-3.43e-4 v 1 H -1.999736 v 4 4 h 0.99999997 v 1 H 2.639748e-4 v 1 H 7.000264 v -1 h 1 v -1 h 1 v -4 -4 h -1 v -1 h -2 v 1 h -1 v 1 h -3 v -1 h -1 v -1 z m 1.0000000048,4 H 7.000264 v 1 h 1 v 3 h -1 v 1 h -1 v 1 h -5 v -1 H 2.639748e-4 v -1 H -0.99973603 v -3 H 2.639748e-4 Z m 0,2 v 1 H 1.000264 v -1 z m 6.0000000252,0 v 1 h 1 v -1 z m -4,1 v 2 h 3 v -2 h -1 v 1 h -1 v -1 z" />
      </g>
    </g>
  </g>
</svg>
