<?xml version="1.0" encoding="UTF-8" standalone="no"?>
<!-- Created with Inkscape (http://www.inkscape.org/) -->

<svg
   xmlns:dc="http://purl.org/dc/elements/1.1/"
   xmlns:cc="http://creativecommons.org/ns#"
   xmlns:rdf="http://www.w3.org/1999/02/22-rdf-syntax-ns#"
   xmlns:svg="http://www.w3.org/2000/svg"
   xmlns="http://www.w3.org/2000/svg"
   xmlns:sodipodi="http://sodipodi.sourceforge.net/DTD/sodipodi-0.dtd"
   xmlns:inkscape="http://www.inkscape.org/namespaces/inkscape"
   width="20"
   height="20"
   viewBox="0 0 5.2916665 5.2916668"
   version="1.1"
   id="svg4196"
   sodipodi:docname="rainbow_circle_60.svg"
   inkscape:version="0.92.2 5c3e80d, 2017-08-06"
   inkscape:export-filename="/home/pajowu/code/jh-logos/pride_collection/bi/rainbow_circle_60.svg.png"
   inkscape:export-xdpi="9000"
   inkscape:export-ydpi="9000">
  <defs
     id="defs4190">
    <clipPath
       clipPathUnits="userSpaceOnUse"
       id="clipPath10180-3">
      <circle
         style="fill:#370000;fill-opacity:1;stroke:none;stroke-width:6.03756857;stroke-linecap:butt;stroke-linejoin:round;stroke-miterlimit:4;stroke-dasharray:none;stroke-dashoffset:0;stroke-opacity:1;paint-order:stroke fill markers"
         id="circle10182-6"
         cx="2.6458333"
         cy="294.35416"
         r="2.6458333" />
    </clipPath>
    <clipPath
       clipPathUnits="userSpaceOnUse"
       id="clipPath11071">
      <g
         id="g11087"
         transform="matrix(0,-95.482805,154.56285,0,-44784.704,309.38153)"
         style="fill:#ffffff">
        <g
           transform="matrix(0.26458333,0,0,0.26458333,-0.72856929,290.8091)"
           id="g11079"
           style="fill:#ffffff">
          <rect
             height="1"
             width="1"
             y="6"
             x="2"
             id="rect11073"
             style="fill:#ffffff" />
          <rect
             height="1"
             width="1"
             y="6"
             x="8"
             id="rect11075"
             style="fill:#ffffff" />
          <polygon
             points="6,7 6,8 5,8 5,7 4,7 4,9 7,9 7,7 "
             id="polygon11077"
             style="fill:#ffffff" />
        </g>
        <g
           transform="matrix(0.26458333,0,0,0.26458333,-0.72856929,290.8091)"
           id="g11085"
           style="fill:#ffffff">
          <polygon
             points="8,0 10,0 10,1 11,1 11,5 9,5 9,4 2,4 2,5 0,5 0,1 1,1 1,0 3,0 3,1 4,1 4,2 7,2 7,1 8,1 "
             id="polygon11081"
             style="fill:#ffffff" />
          <polygon
             points="2,10 2,11 9,11 9,10 10,10 10,9 11,9 11,5 10,5 10,8 9,8 9,9 8,9 8,10 3,10 3,9 2,9 2,8 1,8 1,5 0,5 0,9 1,9 1,10 "
             id="polygon11083"
             style="fill:#ffffff" />
        </g>
      </g>
    </clipPath>
    <clipPath
       clipPathUnits="userSpaceOnUse"
       id="clipPath11442">
      <g
         id="g11458"
         transform="matrix(146.83511,90.708282,-158.74029,98.063342,47072.888,-28863.731)">
        <g
           transform="matrix(0.26458333,0,0,0.26458333,1.8333333e-8,294.08958)"
           id="g11450">
          <rect
             height="1"
             width="1"
             y="6"
             x="2"
             id="rect11444" />
          <rect
             height="1"
             width="1"
             y="6"
             x="8"
             id="rect11446" />
          <polygon
             points="4,9 7,9 7,7 6,7 6,8 5,8 5,7 4,7 "
             id="polygon11448" />
        </g>
        <g
           transform="matrix(0.26458333,0,0,0.26458333,1.8333333e-8,294.08958)"
           id="g11456">
          <polygon
             points="10,0 10,1 11,1 11,5 9,5 9,4 2,4 2,5 0,5 0,1 1,1 1,0 3,0 3,1 4,1 4,2 7,2 7,1 8,1 8,0 "
             id="polygon11452" />
          <polygon
             points="10,9 11,9 11,5 10,5 10,8 9,8 9,9 8,9 8,10 3,10 3,9 2,9 2,8 1,8 1,5 0,5 0,9 1,9 1,10 2,10 2,11 9,11 9,10 10,10 "
             id="polygon11454" />
        </g>
      </g>
    </clipPath>
    <clipPath
       clipPathUnits="userSpaceOnUse"
       id="clipPath11460">
      <g
         id="g11476"
         transform="matrix(0,164.92479,-266.97209,0,79233.095,1.0390262e-4)">
        <g
           transform="matrix(0.26458333,0,0,0.26458333,1.8333333e-8,294.08958)"
           id="g11468">
          <rect
             height="1"
             width="1"
             y="6"
             x="2"
             id="rect11462" />
          <rect
             height="1"
             width="1"
             y="6"
             x="8"
             id="rect11464" />
          <polygon
             points="4,9 7,9 7,7 6,7 6,8 5,8 5,7 4,7 "
             id="polygon11466" />
        </g>
        <g
           transform="matrix(0.26458333,0,0,0.26458333,1.8333333e-8,294.08958)"
           id="g11474">
          <polygon
             points="10,0 10,1 11,1 11,5 9,5 9,4 2,4 2,5 0,5 0,1 1,1 1,0 3,0 3,1 4,1 4,2 7,2 7,1 8,1 8,0 "
             id="polygon11470" />
          <polygon
             points="10,9 11,9 11,5 10,5 10,8 9,8 9,9 8,9 8,10 3,10 3,9 2,9 2,8 1,8 1,5 0,5 0,9 1,9 1,10 2,10 2,11 9,11 9,10 10,10 "
             id="polygon11472" />
        </g>
      </g>
    </clipPath>
    <clipPath
       clipPathUnits="userSpaceOnUse"
       id="clipPath1481">
      <path
         inkscape:connector-curvature="0"
         style="fill:#f10000;fill-opacity:1;stroke:none;stroke-width:16.17518425;stroke-linecap:butt;stroke-linejoin:round;stroke-miterlimit:4;stroke-dasharray:none;stroke-dashoffset:0;stroke-opacity:1;paint-order:stroke fill markers"
         d="m 17.071074,229.24915 a 10.00002,39.687597 4.3366583e-7 0 0 -14.1421594,-2e-5 10.00002,39.687597 4.3366583e-7 0 0 4.6e-6,56.12672 10.00002,39.687597 4.3366583e-7 0 0 14.1421598,2e-5 10.00002,39.687597 4.3366583e-7 0 0 -5e-6,-56.12672 z m -6.326748,-1.47705 1.488648,5.90807 -0.744343,2.95411 0.744325,2.95404 -0.744315,2.95401 2.232973,8.86211 0.744315,-2.954 0.744325,2.95404 0.744343,-2.95411 1.488649,5.90807 -0.744343,2.95412 0.744324,2.95404 -2.977288,11.81611 -2.977289,11.81612 -0.744324,-2.95404 -0.7443431,2.95412 -0.7443245,-2.95404 -0.7443155,2.954 -5.2102713,-20.67827 0.7443155,-2.954 -0.7443239,-2.95404 0.744343,-2.95411 -0.7443247,-2.95404 2.9772883,-11.81612 2.9772884,-11.81612 0.7443247,2.95404 z m -2.2329924,14.77026 -0.7443151,2.954 -0.744324,-2.95403 -2.2329735,8.86212 0.744324,2.95403 -0.7443148,2.954 0.7443244,2.95404 -0.7443431,2.95411 3.7216225,14.7702 0.744343,-2.95411 0.744324,2.95403 0.744315,-2.954 0.744325,2.95404 2.232973,-8.86211 -0.744324,-2.95404 0.744315,-2.954 z m -1.4886301,5.90801 0.7443244,2.95403 -0.7443431,2.95412 -0.7443243,-2.95404 z m 4.4659465,17.72423 0.744325,2.95404 -0.744343,2.95411 -0.744325,-2.95404 z m -3.7216405,-8.86204 0.7443243,2.95404 -0.7443155,2.954 0.7443246,2.95404 0.7443155,-2.95401 0.7443245,2.95404 -1.4886303,5.90801 -2.2329734,-8.86212 z"
         id="path1483" />
    </clipPath>
  </defs>
  <sodipodi:namedview
     id="base"
     pagecolor="#ffffff"
     bordercolor="#666666"
     borderopacity="1.0"
     inkscape:pageopacity="0.0"
     inkscape:pageshadow="2"
     inkscape:zoom="16"
     inkscape:cx="-20.34299"
     inkscape:cy="10.01532"
     inkscape:document-units="mm"
     inkscape:current-layer="layer1"
     showgrid="false"
     units="px"
     inkscape:window-width="1916"
     inkscape:window-height="1033"
     inkscape:window-x="0"
     inkscape:window-y="22"
     inkscape:window-maximized="0" />
  <metadata
     id="metadata4193">
    <rdf:RDF>
      <cc:Work
         rdf:about="">
        <dc:format>image/svg+xml</dc:format>
        <dc:type
           rdf:resource="http://purl.org/dc/dcmitype/StillImage" />
        <dc:title />
      </cc:Work>
    </rdf:RDF>
  </metadata>
  <g
     inkscape:label="Layer 1"
     inkscape:groupmode="layer"
     id="layer1"
     transform="translate(0,-291.70832)">
    <g
       id="g2652"
       transform="matrix(0.17773388,-0.17773387,0.04478332,0.04478332,-10.654813,284.60818)"
       clip-path="url(#clipPath1481)">
      <rect
         id="rect2071"
         y="217.62498"
         x="0"
         height="39.6875"
         width="20"
         style="fill:#d70270;stroke-width:0.10844012" />
      <rect
         id="rect2073"
         y="257.3125"
         x="0"
         height="39.6875"
         width="20"
         style="fill:#0038a8;stroke-width:0.10844012" />
      <rect
         id="rect2075"
         y="249.375"
         x="0"
         height="15.875"
         width="20"
         style="fill:#734f96;stroke-width:0.10844012" />
    </g>
  </g>
</svg>
