<?xml version="1.0" encoding="UTF-8" standalone="no"?>
<!-- Created with Inkscape (http://www.inkscape.org/) -->

<svg
   xmlns:dc="http://purl.org/dc/elements/1.1/"
   xmlns:cc="http://creativecommons.org/ns#"
   xmlns:rdf="http://www.w3.org/1999/02/22-rdf-syntax-ns#"
   xmlns:svg="http://www.w3.org/2000/svg"
   xmlns="http://www.w3.org/2000/svg"
   xmlns:sodipodi="http://sodipodi.sourceforge.net/DTD/sodipodi-0.dtd"
   xmlns:inkscape="http://www.inkscape.org/namespaces/inkscape"
   width="11"
   height="11"
   viewBox="0 0 2.9104167 2.9104167"
   version="1.1"
   id="svg10402"
   sodipodi:docname="bi_single.svg"
   inkscape:version="0.92.2 5c3e80d, 2017-08-06"
   inkscape:export-filename="/home/pajowu/code/jh-logos/pride_collection/bi/jh_rainbow.svg.png"
   inkscape:export-xdpi="9000"
   inkscape:export-ydpi="9000">
  <defs
     id="defs10396">
    <clipPath
       clipPathUnits="userSpaceOnUse"
       id="clipPath11132">
      <g
         id="g11148"
         transform="matrix(0,-164.92479,266.97209,0,-77637.911,359.84078)"
         style="fill:#000000">
        <g
           transform="matrix(0.26458333,0,0,0.26458333,-0.72856929,290.8091)"
           id="g11140"
           style="fill:#000000">
          <rect
             height="1"
             width="1"
             y="6"
             x="2"
             id="rect11134"
             style="fill:#000000" />
          <rect
             height="1"
             width="1"
             y="6"
             x="8"
             id="rect11136"
             style="fill:#000000" />
          <polygon
             points="7,9 7,7 6,7 6,8 5,8 5,7 4,7 4,9 "
             id="polygon11138"
             style="fill:#000000" />
        </g>
        <g
           transform="matrix(0.26458333,0,0,0.26458333,-0.72856929,290.8091)"
           id="g11146"
           style="fill:#000000">
          <polygon
             points="10,1 11,1 11,5 9,5 9,4 2,4 2,5 0,5 0,1 1,1 1,0 3,0 3,1 4,1 4,2 7,2 7,1 8,1 8,0 10,0 "
             id="polygon11142"
             style="fill:#000000" />
          <polygon
             points="1,9 1,10 2,10 2,11 9,11 9,10 10,10 10,9 11,9 11,5 10,5 10,8 9,8 9,9 8,9 8,10 3,10 3,9 2,9 2,8 1,8 1,5 0,5 0,9 "
             id="polygon11144"
             style="fill:#000000" />
        </g>
      </g>
    </clipPath>
    <clipPath
       clipPathUnits="userSpaceOnUse"
       id="clipPath11460">
      <g
         id="g11476"
         transform="matrix(0,164.92479,-266.97209,0,79233.095,1.0390262e-4)">
        <g
           transform="matrix(0.26458333,0,0,0.26458333,1.8333333e-8,294.08958)"
           id="g11468">
          <rect
             height="1"
             width="1"
             y="6"
             x="2"
             id="rect11462" />
          <rect
             height="1"
             width="1"
             y="6"
             x="8"
             id="rect11464" />
          <polygon
             points="4,7 4,9 7,9 7,7 6,7 6,8 5,8 5,7 "
             id="polygon11466" />
        </g>
        <g
           transform="matrix(0.26458333,0,0,0.26458333,1.8333333e-8,294.08958)"
           id="g11474">
          <polygon
             points="8,0 10,0 10,1 11,1 11,5 9,5 9,4 2,4 2,5 0,5 0,1 1,1 1,0 3,0 3,1 4,1 4,2 7,2 7,1 8,1 "
             id="polygon11470" />
          <polygon
             points="10,10 10,9 11,9 11,5 10,5 10,8 9,8 9,9 8,9 8,10 3,10 3,9 2,9 2,8 1,8 1,5 0,5 0,9 1,9 1,10 2,10 2,11 9,11 9,10 "
             id="polygon11472" />
        </g>
      </g>
    </clipPath>
    <clipPath
       clipPathUnits="userSpaceOnUse"
       id="clipPath1803">
      <g
         transform="matrix(6.8718685,0,0,27.272733,-1.5805297e-5,-7803.0016)"
         id="g1811">
        <g
           id="g1807"
           transform="matrix(0.26458333,0,0,0.26458333,1.8333333e-8,294.08958)">
          <path
             d="M 1,0 V 1 H 0 v 4 4 h 1 v 1 h 1 v 1 h 7 v -1 h 1 V 9 h 1 V 5 1 H 10 V 0 H 8 V 1 H 7 V 2 H 4 V 1 H 3 V 0 Z m 1,4 h 7 v 1 h 1 V 8 H 9 V 9 H 8 v 1 H 3 V 9 H 2 V 8 H 1 V 5 H 2 Z M 2,6 V 7 H 3 V 6 Z M 8,6 V 7 H 9 V 6 Z M 4,7 V 9 H 7 V 7 H 6 V 8 H 5 V 7 Z"
             transform="translate(8.7496063e-6,3.3891326e-5)"
             id="path1805"
             inkscape:connector-curvature="0" />
        </g>
        <g
           id="g1809"
           transform="matrix(0.26458333,0,0,0.26458333,1.8333333e-8,294.08958)" />
      </g>
    </clipPath>
    <clipPath
       clipPathUnits="userSpaceOnUse"
       id="clipPath1813">
      <g
         transform="matrix(242.70195,149.93178,-242.70195,149.93178,71636.364,-44289.739)"
         id="g1821">
        <g
           id="g1817"
           transform="matrix(0.26458333,0,0,0.26458333,1.8333333e-8,294.08958)">
          <path
             d="M 1,0 V 1 H 0 v 4 4 h 1 v 1 h 1 v 1 h 7 v -1 h 1 V 9 h 1 V 5 1 H 10 V 0 H 8 V 1 H 7 V 2 H 4 V 1 H 3 V 0 Z m 1,4 h 7 v 1 h 1 V 8 H 9 V 9 H 8 v 1 H 3 V 9 H 2 V 8 H 1 V 5 H 2 Z M 2,6 V 7 H 3 V 6 Z M 8,6 V 7 H 9 V 6 Z M 4,7 V 9 H 7 V 7 H 6 V 8 H 5 V 7 Z"
             transform="translate(8.7496063e-6,3.3891326e-5)"
             id="path1815"
             inkscape:connector-curvature="0" />
        </g>
        <g
           id="g1819"
           transform="matrix(0.26458333,0,0,0.26458333,1.8333333e-8,294.08958)" />
      </g>
    </clipPath>
  </defs>
  <sodipodi:namedview
     id="base"
     pagecolor="#ffffff"
     bordercolor="#666666"
     borderopacity="1.0"
     inkscape:pageopacity="0.0"
     inkscape:pageshadow="2"
     inkscape:zoom="32"
     inkscape:cx="-6.8544577"
     inkscape:cy="5.8412725"
     inkscape:document-units="mm"
     inkscape:current-layer="layer1"
     showgrid="false"
     units="px"
     inkscape:window-width="1916"
     inkscape:window-height="1033"
     inkscape:window-x="0"
     inkscape:window-y="22"
     inkscape:window-maximized="0" />
  <metadata
     id="metadata10399">
    <rdf:RDF>
      <cc:Work
         rdf:about="">
        <dc:format>image/svg+xml</dc:format>
        <dc:type
           rdf:resource="http://purl.org/dc/dcmitype/StillImage" />
        <dc:title />
      </cc:Work>
    </rdf:RDF>
  </metadata>
  <g
     inkscape:label="Layer 1"
     inkscape:groupmode="layer"
     id="layer1"
     transform="translate(0,-294.08958)">
    <g
       id="g10306"
       transform="matrix(0.00206014,-0.00206014,0.00333485,0.00333485,0.11869549,295.28057)"
       clip-path="url(#clipPath1813)" />
    <g
       id="g2652"
       transform="matrix(0.14552083,0,0,0.03666666,-3.3333335e-8,286.11)"
       clip-path="url(#clipPath1803)">
      <rect
         id="rect2071"
         y="217.62498"
         x="0"
         height="39.6875"
         width="20"
         style="fill:#d70270;stroke-width:0.10844012" />
      <rect
         id="rect2073"
         y="257.3125"
         x="0"
         height="39.6875"
         width="20"
         style="fill:#0038a8;stroke-width:0.10844012" />
      <rect
         id="rect2075"
         y="249.375"
         x="0"
         height="15.875"
         width="20"
         style="fill:#734f96;stroke-width:0.10844012" />
    </g>
  </g>
</svg>
