<?xml version="1.0" encoding="UTF-8" standalone="no"?>
<!-- Created with Inkscape (http://www.inkscape.org/) -->

<svg
   xmlns:dc="http://purl.org/dc/elements/1.1/"
   xmlns:cc="http://creativecommons.org/ns#"
   xmlns:rdf="http://www.w3.org/1999/02/22-rdf-syntax-ns#"
   xmlns:svg="http://www.w3.org/2000/svg"
   xmlns="http://www.w3.org/2000/svg"
   xmlns:sodipodi="http://sodipodi.sourceforge.net/DTD/sodipodi-0.dtd"
   xmlns:inkscape="http://www.inkscape.org/namespaces/inkscape"
   width="11"
   height="11"
   viewBox="0 0 2.9104167 2.9104167"
   version="1.1"
   id="svg10402"
   sodipodi:docname="jh_rainbow_queer_45.svg"
   inkscape:version="0.92.2 5c3e80d, 2017-08-06"
   inkscape:export-filename="/home/pajowu/code/jh-logos/pride_collection/bi/jh_rainbow_queer_45.svg.png"
   inkscape:export-xdpi="8997.8184"
   inkscape:export-ydpi="8997.8184">
  <defs
     id="defs10396">
    <clipPath
       clipPathUnits="userSpaceOnUse"
       id="clipPath11132">
      <g
         id="g11148"
         transform="matrix(0,-164.92479,266.97209,0,-77637.911,359.84078)"
         style="fill:#000000">
        <g
           transform="matrix(0.26458333,0,0,0.26458333,-0.72856929,290.8091)"
           id="g11140"
           style="fill:#000000">
          <rect
             height="1"
             width="1"
             y="6"
             x="2"
             id="rect11134"
             style="fill:#000000" />
          <rect
             height="1"
             width="1"
             y="6"
             x="8"
             id="rect11136"
             style="fill:#000000" />
          <polygon
             points="7,9 7,7 6,7 6,8 5,8 5,7 4,7 4,9 "
             id="polygon11138"
             style="fill:#000000" />
        </g>
        <g
           transform="matrix(0.26458333,0,0,0.26458333,-0.72856929,290.8091)"
           id="g11146"
           style="fill:#000000">
          <polygon
             points="10,1 11,1 11,5 9,5 9,4 2,4 2,5 0,5 0,1 1,1 1,0 3,0 3,1 4,1 4,2 7,2 7,1 8,1 8,0 10,0 "
             id="polygon11142"
             style="fill:#000000" />
          <polygon
             points="1,9 1,10 2,10 2,11 9,11 9,10 10,10 10,9 11,9 11,5 10,5 10,8 9,8 9,9 8,9 8,10 3,10 3,9 2,9 2,8 1,8 1,5 0,5 0,9 "
             id="polygon11144"
             style="fill:#000000" />
        </g>
      </g>
    </clipPath>
    <clipPath
       clipPathUnits="userSpaceOnUse"
       id="clipPath2489">
      <g
         transform="matrix(1.28565,0,0,1.2856481,-0.41567943,-84.157223)"
         id="g2505">
        <g
           id="g2497"
           transform="matrix(0.26458333,0,0,0.26458333,1.8333333e-8,294.08958)">
          <rect
             id="rect2491"
             x="2"
             y="6"
             width="1"
             height="1" />
          <rect
             id="rect2493"
             x="8"
             y="6"
             width="1"
             height="1" />
          <polygon
             id="polygon2495"
             points="7,7 6,7 6,8 5,8 5,7 4,7 4,9 7,9 " />
        </g>
        <g
           id="g2503"
           transform="matrix(0.26458333,0,0,0.26458333,1.8333333e-8,294.08958)">
          <polygon
             id="polygon2499"
             points="11,1 11,5 9,5 9,4 2,4 2,5 0,5 0,1 1,1 1,0 3,0 3,1 4,1 4,2 7,2 7,1 8,1 8,0 10,0 10,1 " />
          <polygon
             id="polygon2501"
             points="11,5 10,5 10,8 9,8 9,9 8,9 8,10 3,10 3,9 2,9 2,8 1,8 1,5 0,5 0,9 1,9 1,10 2,10 2,11 9,11 9,10 10,10 10,9 11,9 " />
        </g>
      </g>
    </clipPath>
    <clipPath
       clipPathUnits="userSpaceOnUse"
       id="clipPath2507">
      <g
         transform="matrix(0,212.03556,-343.23215,0,101700.72,-68.555739)"
         id="g2523">
        <g
           id="g2515"
           transform="matrix(0.26458333,0,0,0.26458333,1.8333333e-8,294.08958)">
          <rect
             id="rect2509"
             x="2"
             y="6"
             width="1"
             height="1" />
          <rect
             id="rect2511"
             x="8"
             y="6"
             width="1"
             height="1" />
          <polygon
             id="polygon2513"
             points="7,7 6,7 6,8 5,8 5,7 4,7 4,9 7,9 " />
        </g>
        <g
           id="g2521"
           transform="matrix(0.26458333,0,0,0.26458333,1.8333333e-8,294.08958)">
          <polygon
             id="polygon2517"
             points="11,1 11,5 9,5 9,4 2,4 2,5 0,5 0,1 1,1 1,0 3,0 3,1 4,1 4,2 7,2 7,1 8,1 8,0 10,0 10,1 " />
          <polygon
             id="polygon2519"
             points="11,5 10,5 10,8 9,8 9,9 8,9 8,10 3,10 3,9 2,9 2,8 1,8 1,5 0,5 0,9 1,9 1,10 2,10 2,11 9,11 9,10 10,10 10,9 11,9 " />
        </g>
      </g>
    </clipPath>
    <clipPath
       clipPathUnits="userSpaceOnUse"
       id="clipPath4160">
      <g
         transform="matrix(3.7607234,14.925377,-3.7607234,14.925378,1115.9896,-4175.5249)"
         id="g4168">
        <g
           id="g4164"
           transform="matrix(0.26458333,0,0,0.26458333,1.8333333e-8,294.08958)">
          <path
             inkscape:connector-curvature="0"
             id="path4162"
             transform="translate(1.4698419e-5,4.0892523e-5)"
             d="M 1,0 V 1 H 0 v 4 4 h 1 v 1 h 1 v 1 h 7 v -1 h 1 V 9 h 1 V 5 1 H 10 V 0 H 8 V 1 H 7 V 2 H 4 V 1 H 3 V 0 Z m 1,4 h 7 v 1 h 1 V 8 H 9 V 9 H 8 v 1 H 3 V 9 H 2 V 8 H 1 V 5 H 2 Z M 2,6 V 7 H 3 V 6 Z M 8,6 V 7 H 9 V 6 Z M 4,7 V 9 H 7 V 7 H 6 V 8 H 5 V 7 Z" />
        </g>
        <g
           id="g4166"
           transform="matrix(0.26458333,0,0,0.26458333,1.8333333e-8,294.08958)" />
      </g>
    </clipPath>
  </defs>
  <sodipodi:namedview
     id="base"
     pagecolor="#ffffff"
     bordercolor="#666666"
     borderopacity="1.0"
     inkscape:pageopacity="0.0"
     inkscape:pageshadow="2"
     inkscape:zoom="45.254834"
     inkscape:cx="-0.15839733"
     inkscape:cy="6.0260429"
     inkscape:document-units="mm"
     inkscape:current-layer="layer1"
     showgrid="false"
     units="px"
     inkscape:window-width="1916"
     inkscape:window-height="1033"
     inkscape:window-x="0"
     inkscape:window-y="22"
     inkscape:window-maximized="0" />
  <metadata
     id="metadata10399">
    <rdf:RDF>
      <cc:Work
         rdf:about="">
        <dc:format>image/svg+xml</dc:format>
        <dc:type
           rdf:resource="http://purl.org/dc/dcmitype/StillImage" />
        <dc:title />
      </cc:Work>
    </rdf:RDF>
  </metadata>
  <g
     inkscape:label="Layer 1"
     inkscape:groupmode="layer"
     id="layer1"
     transform="translate(0,-294.08958)">
    <g
       id="g10306"
       transform="matrix(0,-0.00291348,0.00471619,0,0.32331951,296.30302)"
       clip-path="url(#clipPath2507)" />
    <g
       id="g2652"
       transform="matrix(0.13295315,-0.13295314,0.03349999,0.03349999,-8.4942893,288.25435)"
       clip-path="url(#clipPath4160)">
      <rect
         id="rect2071"
         y="217.62498"
         x="0"
         height="39.6875"
         width="20"
         style="fill:#d70270;stroke-width:0.10844012" />
      <rect
         id="rect2073"
         y="257.3125"
         x="0"
         height="39.6875"
         width="20"
         style="fill:#0038a8;stroke-width:0.10844012" />
      <rect
         id="rect2075"
         y="249.375"
         x="0"
         height="15.875"
         width="20"
         style="fill:#734f96;stroke-width:0.10844012" />
    </g>
  </g>
</svg>
